<svg class="svg" xmlns="http://www.w3.org/2000/svg" xmlns:xlink="http://www.w3.org/1999/xlink" width="40" height="40"><path d="M2.52994 9.5H0.675649V3.4913H2.52994V9.5V9.5ZM1.6018 2.67165C1.00898 2.67165 0.527944 2.17746 0.527944 1.5808C0.527944 0.984152 1.00898 0.5 1.6018 0.5C2.19461 0.5 2.67565 0.984152 2.67565 1.5808C2.67565 2.17746 2.19461 2.67165 1.6018 2.67165ZM9.47005 9.5H7.61975V6.575C7.61975 5.8779 7.60578 4.98393 6.65568 4.98393C5.69161 4.98393 5.54391 5.7413 5.54391 6.52478V9.5H3.69161V3.4913H5.47005V4.31094H5.496C5.74351 3.83884 6.3483 3.34063 7.25049 3.34063C9.12674 3.34063 9.47205 4.58415 9.47205 6.19933V9.5H9.47005Z" fill="black" stroke-width="10"></path></svg>