<svg class="svg" xmlns="http://www.w3.org/2000/svg" xmlns:xlink="http://www.w3.org/1999/xlink" width="40" height="40"><path d="M5.23234 0.5C3.24585 0.5 1.2826 1.7334 1.2826 3.72957C1.2826 4.99903 2.04932 5.72032 2.51399 5.72032C2.70567 5.72032 2.81603 5.22263 2.81603 5.08198C2.81603 4.91428 2.35716 4.55724 2.35716 3.8594C2.35716 2.40961 3.54208 1.38177 5.07551 1.38177C6.39402 1.38177 7.36984 2.07962 7.36984 3.36171C7.36984 4.31922 6.95744 6.11523 5.6215 6.11523C5.1394 6.11523 4.727 5.79065 4.727 5.32542C4.727 4.6438 5.23815 3.98382 5.23815 3.28056C5.23815 2.08683 3.42011 2.30322 3.42011 3.7458C3.42011 4.04874 3.46077 4.38413 3.60598 4.66003C3.33879 5.73114 2.7928 7.32699 2.7928 8.43056C2.7928 8.77137 2.84507 9.10677 2.87992 9.44758C2.94575 9.5161 2.91284 9.50888 3.01352 9.47462C3.98933 8.2304 3.95448 7.98697 4.39592 6.35866C4.63407 6.78061 5.24976 7.00782 5.73767 7.00782C7.79385 7.00782 8.71739 5.14149 8.71739 3.45908C8.71739 1.66849 7.05618 0.5 5.23234 0.5Z" fill="black" stroke-width="10"></path></svg>