<svg class="svg" xmlns="http://www.w3.org/2000/svg" xmlns:xlink="http://www.w3.org/1999/xlink" width="40" height="40"><path d="M8.57489 3.19437C8.5806 3.27311 8.5806 3.35188 8.5806 3.43062C8.5806 5.83248 6.72465 8.59999 3.3325 8.59999C2.28744 8.59999 1.31663 8.30186 0.5 7.78438C0.648483 7.80124 0.791235 7.80687 0.945431 7.80687C1.80773 7.80687 2.60152 7.52 3.23541 7.03063C2.42449 7.01375 1.74492 6.49062 1.51078 5.77062C1.625 5.78748 1.73921 5.79874 1.85915 5.79874C2.02475 5.79874 2.19037 5.77623 2.34455 5.73687C1.49937 5.56811 0.865468 4.83687 0.865468 3.95374V3.93125C1.11102 4.06625 1.39658 4.15063 1.69922 4.16186C1.20239 3.83561 0.876894 3.27874 0.876894 2.64873C0.876894 2.31124 0.968248 2.00187 1.12816 1.73186C2.03616 2.83436 3.40102 3.55435 4.93146 3.63311C4.90291 3.49811 4.88577 3.3575 4.88577 3.21687C4.88577 2.21561 5.70812 1.4 6.73032 1.4C7.26141 1.4 7.7411 1.61937 8.07804 1.97375C8.49491 1.895 8.89466 1.74312 9.24873 1.535C9.11166 1.95688 8.82042 2.31126 8.43782 2.53624C8.80901 2.49689 9.16879 2.39561 9.49999 2.255C9.24877 2.61499 8.93466 2.9356 8.57489 3.19437V3.19437Z" fill="black" stroke-width="10"></path></svg>